<mxfile host="app.diagrams.net" agent="Mozilla/5.0 (Windows NT 10.0; Win64; x64) AppleWebKit/537.36 (KHTML, like Gecko) Chrome/132.0.0.0 Safari/537.36 OPR/117.0.0.0" version="26.1.3">
  <diagram name="Page-1" id="e7e014a7-5840-1c2e-5031-d8a46d1fe8dd">
    <mxGraphModel dx="1393" dy="760" grid="0" gridSize="10" guides="1" tooltips="1" connect="1" arrows="1" fold="1" page="1" pageScale="1" pageWidth="1169" pageHeight="826" background="none" math="0" shadow="0">
      <root>
        <mxCell id="0" />
        <mxCell id="1" parent="0" />
        <mxCell id="lvP93sGGcZC7NfJnXs7C-41" value="iPhone" style="swimlane;fontStyle=1;align=center;verticalAlign=top;childLayout=stackLayout;horizontal=1;startSize=26;horizontalStack=0;resizeParent=1;resizeParentMax=0;resizeLast=0;collapsible=1;marginBottom=0;whiteSpace=wrap;html=1;" vertex="1" parent="1">
          <mxGeometry x="480" y="40" width="200" height="339" as="geometry" />
        </mxCell>
        <mxCell id="lvP93sGGcZC7NfJnXs7C-42" value="- Telefone" style="text;strokeColor=none;fillColor=none;align=left;verticalAlign=top;spacingLeft=4;spacingRight=4;overflow=hidden;rotatable=0;points=[[0,0.5],[1,0.5]];portConstraint=eastwest;whiteSpace=wrap;html=1;" vertex="1" parent="lvP93sGGcZC7NfJnXs7C-41">
          <mxGeometry y="26" width="200" height="23" as="geometry" />
        </mxCell>
        <mxCell id="lvP93sGGcZC7NfJnXs7C-61" value="- NavegadorInternet" style="text;strokeColor=none;fillColor=none;align=left;verticalAlign=top;spacingLeft=4;spacingRight=4;overflow=hidden;rotatable=0;points=[[0,0.5],[1,0.5]];portConstraint=eastwest;whiteSpace=wrap;html=1;" vertex="1" parent="lvP93sGGcZC7NfJnXs7C-41">
          <mxGeometry y="49" width="200" height="24" as="geometry" />
        </mxCell>
        <mxCell id="lvP93sGGcZC7NfJnXs7C-62" value="- Musica" style="text;strokeColor=none;fillColor=none;align=left;verticalAlign=top;spacingLeft=4;spacingRight=4;overflow=hidden;rotatable=0;points=[[0,0.5],[1,0.5]];portConstraint=eastwest;whiteSpace=wrap;html=1;" vertex="1" parent="lvP93sGGcZC7NfJnXs7C-41">
          <mxGeometry y="73" width="200" height="24" as="geometry" />
        </mxCell>
        <mxCell id="lvP93sGGcZC7NfJnXs7C-43" value="" style="line;strokeWidth=1;fillColor=none;align=left;verticalAlign=middle;spacingTop=-1;spacingLeft=3;spacingRight=3;rotatable=0;labelPosition=right;points=[];portConstraint=eastwest;strokeColor=inherit;" vertex="1" parent="lvP93sGGcZC7NfJnXs7C-41">
          <mxGeometry y="97" width="200" height="8" as="geometry" />
        </mxCell>
        <mxCell id="lvP93sGGcZC7NfJnXs7C-44" value="+ tocar()" style="text;strokeColor=none;fillColor=none;align=left;verticalAlign=top;spacingLeft=4;spacingRight=4;overflow=hidden;rotatable=0;points=[[0,0.5],[1,0.5]];portConstraint=eastwest;whiteSpace=wrap;html=1;" vertex="1" parent="lvP93sGGcZC7NfJnXs7C-41">
          <mxGeometry y="105" width="200" height="26" as="geometry" />
        </mxCell>
        <mxCell id="lvP93sGGcZC7NfJnXs7C-69" value="+ pausar()" style="text;strokeColor=none;fillColor=none;align=left;verticalAlign=top;spacingLeft=4;spacingRight=4;overflow=hidden;rotatable=0;points=[[0,0.5],[1,0.5]];portConstraint=eastwest;whiteSpace=wrap;html=1;" vertex="1" parent="lvP93sGGcZC7NfJnXs7C-41">
          <mxGeometry y="131" width="200" height="26" as="geometry" />
        </mxCell>
        <mxCell id="lvP93sGGcZC7NfJnXs7C-67" value="+ selecionarMusica(String musica)" style="text;strokeColor=none;fillColor=none;align=left;verticalAlign=top;spacingLeft=4;spacingRight=4;overflow=hidden;rotatable=0;points=[[0,0.5],[1,0.5]];portConstraint=eastwest;whiteSpace=wrap;html=1;" vertex="1" parent="lvP93sGGcZC7NfJnXs7C-41">
          <mxGeometry y="157" width="200" height="26" as="geometry" />
        </mxCell>
        <mxCell id="lvP93sGGcZC7NfJnXs7C-66" value="+ ligar(String numero)" style="text;strokeColor=none;fillColor=none;align=left;verticalAlign=top;spacingLeft=4;spacingRight=4;overflow=hidden;rotatable=0;points=[[0,0.5],[1,0.5]];portConstraint=eastwest;whiteSpace=wrap;html=1;" vertex="1" parent="lvP93sGGcZC7NfJnXs7C-41">
          <mxGeometry y="183" width="200" height="26" as="geometry" />
        </mxCell>
        <mxCell id="lvP93sGGcZC7NfJnXs7C-68" value="+ atender()" style="text;strokeColor=none;fillColor=none;align=left;verticalAlign=top;spacingLeft=4;spacingRight=4;overflow=hidden;rotatable=0;points=[[0,0.5],[1,0.5]];portConstraint=eastwest;whiteSpace=wrap;html=1;" vertex="1" parent="lvP93sGGcZC7NfJnXs7C-41">
          <mxGeometry y="209" width="200" height="26" as="geometry" />
        </mxCell>
        <mxCell id="lvP93sGGcZC7NfJnXs7C-71" value="+ iniciarCorreioVoz()" style="text;strokeColor=none;fillColor=none;align=left;verticalAlign=top;spacingLeft=4;spacingRight=4;overflow=hidden;rotatable=0;points=[[0,0.5],[1,0.5]];portConstraint=eastwest;whiteSpace=wrap;html=1;" vertex="1" parent="lvP93sGGcZC7NfJnXs7C-41">
          <mxGeometry y="235" width="200" height="26" as="geometry" />
        </mxCell>
        <mxCell id="lvP93sGGcZC7NfJnXs7C-70" value="+ exibirPagina(String url)" style="text;strokeColor=none;fillColor=none;align=left;verticalAlign=top;spacingLeft=4;spacingRight=4;overflow=hidden;rotatable=0;points=[[0,0.5],[1,0.5]];portConstraint=eastwest;whiteSpace=wrap;html=1;" vertex="1" parent="lvP93sGGcZC7NfJnXs7C-41">
          <mxGeometry y="261" width="200" height="26" as="geometry" />
        </mxCell>
        <mxCell id="lvP93sGGcZC7NfJnXs7C-63" value="+ adicionarNovaAba()" style="text;strokeColor=none;fillColor=none;align=left;verticalAlign=top;spacingLeft=4;spacingRight=4;overflow=hidden;rotatable=0;points=[[0,0.5],[1,0.5]];portConstraint=eastwest;whiteSpace=wrap;html=1;" vertex="1" parent="lvP93sGGcZC7NfJnXs7C-41">
          <mxGeometry y="287" width="200" height="26" as="geometry" />
        </mxCell>
        <mxCell id="lvP93sGGcZC7NfJnXs7C-64" value="+ atualizarPagina()" style="text;strokeColor=none;fillColor=none;align=left;verticalAlign=top;spacingLeft=4;spacingRight=4;overflow=hidden;rotatable=0;points=[[0,0.5],[1,0.5]];portConstraint=eastwest;whiteSpace=wrap;html=1;" vertex="1" parent="lvP93sGGcZC7NfJnXs7C-41">
          <mxGeometry y="313" width="200" height="26" as="geometry" />
        </mxCell>
        <mxCell id="lvP93sGGcZC7NfJnXs7C-46" value="" style="endArrow=classic;html=1;rounded=0;entryX=0.5;entryY=0;entryDx=0;entryDy=0;" edge="1" parent="1" target="lvP93sGGcZC7NfJnXs7C-52">
          <mxGeometry width="50" height="50" relative="1" as="geometry">
            <mxPoint x="680" y="80" as="sourcePoint" />
            <mxPoint x="840" y="240" as="targetPoint" />
            <Array as="points">
              <mxPoint x="860" y="80" />
            </Array>
          </mxGeometry>
        </mxCell>
        <mxCell id="lvP93sGGcZC7NfJnXs7C-47" value="" style="endArrow=classic;html=1;rounded=0;exitX=0;exitY=0.5;exitDx=0;exitDy=0;entryX=0.5;entryY=0;entryDx=0;entryDy=0;" edge="1" parent="1" source="lvP93sGGcZC7NfJnXs7C-42" target="lvP93sGGcZC7NfJnXs7C-48">
          <mxGeometry width="50" height="50" relative="1" as="geometry">
            <mxPoint x="160" y="80" as="sourcePoint" />
            <mxPoint x="320" y="240" as="targetPoint" />
            <Array as="points">
              <mxPoint x="300" y="80" />
            </Array>
          </mxGeometry>
        </mxCell>
        <mxCell id="lvP93sGGcZC7NfJnXs7C-48" value="Musica" style="swimlane;fontStyle=0;childLayout=stackLayout;horizontal=1;startSize=26;fillColor=none;horizontalStack=0;resizeParent=1;resizeParentMax=0;resizeLast=0;collapsible=1;marginBottom=0;whiteSpace=wrap;html=1;" vertex="1" parent="1">
          <mxGeometry x="200" y="240" width="200" height="104" as="geometry" />
        </mxCell>
        <mxCell id="lvP93sGGcZC7NfJnXs7C-49" value="+ tocar()" style="text;strokeColor=none;fillColor=none;align=left;verticalAlign=top;spacingLeft=4;spacingRight=4;overflow=hidden;rotatable=0;points=[[0,0.5],[1,0.5]];portConstraint=eastwest;whiteSpace=wrap;html=1;" vertex="1" parent="lvP93sGGcZC7NfJnXs7C-48">
          <mxGeometry y="26" width="200" height="26" as="geometry" />
        </mxCell>
        <mxCell id="lvP93sGGcZC7NfJnXs7C-50" value="+ pausar()" style="text;strokeColor=none;fillColor=none;align=left;verticalAlign=top;spacingLeft=4;spacingRight=4;overflow=hidden;rotatable=0;points=[[0,0.5],[1,0.5]];portConstraint=eastwest;whiteSpace=wrap;html=1;" vertex="1" parent="lvP93sGGcZC7NfJnXs7C-48">
          <mxGeometry y="52" width="200" height="26" as="geometry" />
        </mxCell>
        <mxCell id="lvP93sGGcZC7NfJnXs7C-51" value="+ selecionarMusica(String musica)" style="text;strokeColor=none;fillColor=none;align=left;verticalAlign=top;spacingLeft=4;spacingRight=4;overflow=hidden;rotatable=0;points=[[0,0.5],[1,0.5]];portConstraint=eastwest;whiteSpace=wrap;html=1;" vertex="1" parent="lvP93sGGcZC7NfJnXs7C-48">
          <mxGeometry y="78" width="200" height="26" as="geometry" />
        </mxCell>
        <mxCell id="lvP93sGGcZC7NfJnXs7C-52" value="NavegadorInternet" style="swimlane;fontStyle=0;childLayout=stackLayout;horizontal=1;startSize=26;fillColor=none;horizontalStack=0;resizeParent=1;resizeParentMax=0;resizeLast=0;collapsible=1;marginBottom=0;whiteSpace=wrap;html=1;" vertex="1" parent="1">
          <mxGeometry x="760" y="240" width="200" height="104" as="geometry" />
        </mxCell>
        <mxCell id="lvP93sGGcZC7NfJnXs7C-53" value="+ exibirPagina(String url)" style="text;strokeColor=none;fillColor=none;align=left;verticalAlign=top;spacingLeft=4;spacingRight=4;overflow=hidden;rotatable=0;points=[[0,0.5],[1,0.5]];portConstraint=eastwest;whiteSpace=wrap;html=1;" vertex="1" parent="lvP93sGGcZC7NfJnXs7C-52">
          <mxGeometry y="26" width="200" height="26" as="geometry" />
        </mxCell>
        <mxCell id="lvP93sGGcZC7NfJnXs7C-54" value="+ adicionarNovaAba()" style="text;strokeColor=none;fillColor=none;align=left;verticalAlign=top;spacingLeft=4;spacingRight=4;overflow=hidden;rotatable=0;points=[[0,0.5],[1,0.5]];portConstraint=eastwest;whiteSpace=wrap;html=1;" vertex="1" parent="lvP93sGGcZC7NfJnXs7C-52">
          <mxGeometry y="52" width="200" height="26" as="geometry" />
        </mxCell>
        <mxCell id="lvP93sGGcZC7NfJnXs7C-55" value="+ atualizarPagina()" style="text;strokeColor=none;fillColor=none;align=left;verticalAlign=top;spacingLeft=4;spacingRight=4;overflow=hidden;rotatable=0;points=[[0,0.5],[1,0.5]];portConstraint=eastwest;whiteSpace=wrap;html=1;" vertex="1" parent="lvP93sGGcZC7NfJnXs7C-52">
          <mxGeometry y="78" width="200" height="26" as="geometry" />
        </mxCell>
        <mxCell id="lvP93sGGcZC7NfJnXs7C-56" value="" style="endArrow=classic;html=1;rounded=0;" edge="1" parent="1" source="lvP93sGGcZC7NfJnXs7C-64">
          <mxGeometry width="50" height="50" relative="1" as="geometry">
            <mxPoint x="579.5" y="126" as="sourcePoint" />
            <mxPoint x="580" y="457" as="targetPoint" />
          </mxGeometry>
        </mxCell>
        <mxCell id="lvP93sGGcZC7NfJnXs7C-57" value="Telefone" style="swimlane;fontStyle=0;childLayout=stackLayout;horizontal=1;startSize=26;fillColor=none;horizontalStack=0;resizeParent=1;resizeParentMax=0;resizeLast=0;collapsible=1;marginBottom=0;whiteSpace=wrap;html=1;" vertex="1" parent="1">
          <mxGeometry x="485" y="459" width="200" height="104" as="geometry" />
        </mxCell>
        <mxCell id="lvP93sGGcZC7NfJnXs7C-58" value="+ ligar(String numero)" style="text;strokeColor=none;fillColor=none;align=left;verticalAlign=top;spacingLeft=4;spacingRight=4;overflow=hidden;rotatable=0;points=[[0,0.5],[1,0.5]];portConstraint=eastwest;whiteSpace=wrap;html=1;" vertex="1" parent="lvP93sGGcZC7NfJnXs7C-57">
          <mxGeometry y="26" width="200" height="26" as="geometry" />
        </mxCell>
        <mxCell id="lvP93sGGcZC7NfJnXs7C-59" value="+ atender()" style="text;strokeColor=none;fillColor=none;align=left;verticalAlign=top;spacingLeft=4;spacingRight=4;overflow=hidden;rotatable=0;points=[[0,0.5],[1,0.5]];portConstraint=eastwest;whiteSpace=wrap;html=1;" vertex="1" parent="lvP93sGGcZC7NfJnXs7C-57">
          <mxGeometry y="52" width="200" height="26" as="geometry" />
        </mxCell>
        <mxCell id="lvP93sGGcZC7NfJnXs7C-60" value="+ iniciarCorreioVoz()" style="text;strokeColor=none;fillColor=none;align=left;verticalAlign=top;spacingLeft=4;spacingRight=4;overflow=hidden;rotatable=0;points=[[0,0.5],[1,0.5]];portConstraint=eastwest;whiteSpace=wrap;html=1;" vertex="1" parent="lvP93sGGcZC7NfJnXs7C-57">
          <mxGeometry y="78" width="200" height="26" as="geometry" />
        </mxCell>
      </root>
    </mxGraphModel>
  </diagram>
</mxfile>
